<svg width="129" height="36" fill="none" xmlns="http://www.w3.org/2000/svg"><path d="M8.072 17.124H5.229a1.094 1.094 0 01-1.088-1.088c0-.596.491-1.088 1.088-1.088h2.843c.597 0 1.088.492 1.088 1.088.035.597-.456 1.088-1.088 1.088zm-3.684 6.253H1.545A1.094 1.094 0 01.457 22.29c0-.596.491-1.088 1.088-1.088h2.843c.597 0 1.088.492 1.088 1.088.035.597-.491 1.088-1.088 1.088zm-2.144-6.253h-.316A1.094 1.094 0 01.84 16.036c0-.596.491-1.088 1.088-1.088h.316c.597 0 1.088.492 1.088 1.088.035.597-.456 1.088-1.088 1.088zm-.84-6.344h-.316A1.094 1.094 0 010 9.692c0-.597.491-1.088 1.088-1.088h.316c.597 0 1.088.49 1.088 1.088.035.561-.491 1.088-1.088 1.088zm13.898-3.902c-1.264 0-2.317.807-2.738 1.895a1.038 1.038 0 00-.351-.07H4.7c-.596 0-1.088.492-1.088 1.088 0 .597.492 1.088 1.088 1.088h7.512c.105 0 .246-.035.35-.07a2.932 2.932 0 002.739 1.896 2.966 2.966 0 002.948-2.949c0-1.614-1.299-2.878-2.948-2.878zm0 4.422a1.483 1.483 0 01-1.475-1.474c0-.807.667-1.474 1.475-1.474.807 0 1.474.667 1.474 1.474.035.808-.632 1.474-1.474 1.474zm8.358-6.241a.981.981 0 00-.982-.983.96.96 0 00-.983.983c0 .526.421.983.983.983a.981.981 0 00.983-.983z" fill="#fff"/><path d="M41.662 21.376a246.135 246.135 0 00-2.352-2.808 1.745 1.745 0 01-.421-1.158c0-.175.035-.316.07-.456.21-.702.842-2.808.772-4.493-.07-2.036-.947-4.95-4.106-7.125-3.124-2.177-5.265-2.808-7.442-3.054-.456-.035-1.017-.105-1.684-.105H14.214A2.897 2.897 0 0011.476.28C9.86.281 8.562 1.615 8.562 3.23a2.966 2.966 0 002.949 2.948c1.228 0 2.281-.772 2.738-1.825h6.669c.28-.702.983-1.229 1.79-1.229 1.088 0 1.93.878 1.93 1.93a1.924 1.924 0 01-1.93 1.931 1.857 1.857 0 01-1.58-.842h-3.334c1.158.772 1.965 2.141 1.965 3.65a4.4 4.4 0 01-2 3.686h4.843a4.406 4.406 0 013.546-1.825 4.39 4.39 0 014.387 4.387 4.39 4.39 0 01-4.387 4.388 4.36 4.36 0 01-3.58-1.86h-6.354c.106.14.176.245.281.35.948.808 1.51 2.001 1.51 3.335a4.37 4.37 0 01-2.493 3.931l14.04 9.723 1.299-4.177c.14-.457.597-.737 1.053-.632a71.98 71.98 0 002.703.491c.737.106 2.667.106 3.194-.245.526-.386 1.018-.983.667-2.352 0 0-.246-.456-.176-.807.07-.386.492-.421.772-.702.281-.281.457-1.229-.14-1.37 0 0 .702-.315.842-.842.14-.526-.035-.491-.21-.807l-.105-.386c-.036-.175.07-.386.245-.421.421-.106 1.123-.281 1.58-.632.702-.491.912-.983.386-1.65zM11.476 4.704a1.483 1.483 0 01-1.474-1.474c0-.808.666-1.475 1.474-1.475.807 0 1.474.667 1.474 1.475.035.807-.632 1.474-1.474 1.474z" fill="#121212"/><path d="M26.111 13.13a2.956 2.956 0 00-2.738 1.826H11.3c-.597 0-1.088.492-1.088 1.088 0 .597.491 1.088 1.088 1.088h12.074a2.951 2.951 0 002.738 1.86 2.966 2.966 0 002.949-2.948c0-1.614-1.334-2.913-2.949-2.913zm0 4.423a1.483 1.483 0 01-1.474-1.474c0-.807.667-1.474 1.474-1.474.808 0 1.474.667 1.474 1.474a1.46 1.46 0 01-1.474 1.474zM13.583 19.3c-1.229 0-2.282.772-2.738 1.825H7.72c-.597 0-1.088.491-1.088 1.088 0 .597.491 1.088 1.088 1.088h3.124c.421 1.088 1.51 1.825 2.738 1.825a2.966 2.966 0 002.948-2.948c0-1.615-1.334-2.878-2.948-2.878zm0 4.457a1.483 1.483 0 01-1.475-1.474c0-.807.667-1.474 1.475-1.474.807 0 1.474.667 1.474 1.474 0 .808-.667 1.474-1.474 1.474zm48.031-4.314h4.441V17H59v7h8v-2.476h-5.386v-2.08z" fill="#fff"/><path d="M46 24h5.32c1.94 0 3.521-.552 4.708-1.655 1.186-1.104 1.76-2.552 1.76-4.345 0-.483-.035-.897-.107-1.345h-3.199c.144.38.216.828.216 1.345 0 1-.288 1.828-.863 2.414-.575.62-1.438.896-2.552.896h-2.3v-6.655h20.99l3.594 9.31h3.522L80 16.38h-2.983L75.327 21l-3.234-9H46v12z" fill="#fff"/><path d="M129 15.241h-4.066V25h-3.868v-9.759H117V12h12v3.241zM83.853 24.78v-4H86.1c1.544 0 2.773-.387 3.615-1.16.843-.771 1.264-1.824 1.264-3.123 0-1.334-.421-2.387-1.264-3.194-.842-.808-2.07-1.194-3.65-1.194h-4.809l-1.123 3.09h5.862c.42 0 .807.104 1.052.35.281.246.422.562.422.948 0 .421-.14.737-.421.948-.281.21-.632.35-1.053.35h-3.09l-2.562 7.02m15.82-12.328A8.345 8.345 0 0199 12c.995 0 1.953.174 2.837.487.884.313 1.621.764 2.21 1.355a5.543 5.543 0 011.437 2.051c.332.8.516 1.668.516 2.607a6.87 6.87 0 01-.516 2.607c-.331.8-.81 1.495-1.437 2.05a7.69 7.69 0 01-2.21 1.356A8.343 8.343 0 0199 25a8.505 8.505 0 01-2.837-.487c-.884-.313-1.62-.764-2.21-1.355a5.558 5.558 0 01-1.437-2.051A6.746 6.746 0 0192 18.5c0-.939.184-1.773.516-2.607.331-.8.81-1.495 1.437-2.05.59-.592 1.326-1.043 2.21-1.356zm5.195 3.65c-.59-.591-1.4-.904-2.358-.904-.958 0-1.768.313-2.358.903-.59.591-.92 1.39-.92 2.33 0 .938.294 1.737.92 2.328.59.591 1.4.904 2.358.904.958 0 1.768-.313 2.358-.904.589-.59.921-1.39.921-2.329-.037-.938-.332-1.703-.921-2.329zM112.246 12c1.475 0 2.59.397 3.41 1.156.787.758 1.18 1.841 1.18 3.177 0 1.011-.262 1.878-.787 2.528-.524.686-1.279 1.12-2.262 1.372L117 25h-3.77l-2.853-4.622h-.164V25H107V12h5.246zm-2.066 3.178v2.31h2.033c.426 0 .754-.107.984-.288.262-.18.393-.47.393-.867 0-.36-.131-.65-.393-.866a1.703 1.703 0 00-.984-.29h-2.033z" fill="#121212"/></svg>